<svg width="52" height="52" viewBox="0 0 52 52" fill="none" xmlns="http://www.w3.org/2000/svg">
<rect width="52" height="52" rx="26" fill="white"/>
<mask id="path-2-inside-1_1_624" fill="white">
<path d="M17.831 14.5965H34.1416L34.7447 14.6787L35.3203 14.8432L35.7589 15.0351L36.1975 15.3092L36.6361 15.6656L36.9651 16.0219L37.2118 16.3783L37.4037 16.7072L37.5682 17.1184L37.7327 17.6941L38.1439 19.6404L38.3632 20.6546L38.3906 20.7094L39.3226 20.7368L39.2952 19.8322V19.3114L39.35 19.1195L39.4871 18.9825L39.6516 18.9002L42.9137 18.8728L43.6812 18.9002L43.8457 19.0099L43.9554 19.1469L43.9828 19.284V21.7785L43.9005 21.9978L43.7635 22.1075L43.3249 22.2171L41.7075 22.4912L39.8709 22.7928H39.6516L39.4322 22.6831L39.35 22.5735L39.3226 22.4912V21.614H38.555L38.7743 22.4912L39.0211 23.5603L39.1581 23.67L39.4871 23.8618L39.8709 24.136L40.1998 24.4375L40.4739 24.7116L40.8029 25.1776L41.0222 25.5614L41.2415 26.0822L41.3786 26.6305L41.4608 27.2336L41.7075 30.0296L41.7623 30.989V35.5943L41.6801 36.1151L41.5704 36.3893L41.3786 36.6908L41.0496 37.0197L40.8029 37.1842L40.4465 37.3213L40.2272 37.3761L37.157 37.4035H36.3346L35.9508 37.3487L35.5122 37.1842L35.2107 36.9923L34.9366 36.7182L34.7173 36.3344L34.6076 36.0329L34.5528 35.6765L34.5254 34.7993H17.4746L17.4472 35.6491L17.3924 36.0329L17.2279 36.4441L16.9538 36.8278L16.7345 37.0197L16.433 37.2116L16.0492 37.3487L15.638 37.4035H12.0195L11.6631 37.3487L11.2794 37.2116L11.0052 37.0471L10.7311 36.8004L10.5666 36.5811L10.4022 36.2522L10.3199 35.9232L10.2925 35.6765L10.2651 34.4156V31.2906L10.3199 30.057L10.5666 27.3158L10.6489 26.6853L10.7859 26.1371L10.923 25.7807L11.1423 25.3421L11.4164 24.9309L11.6631 24.6294L12.0743 24.2182L12.5678 23.8618L13.0064 23.6151L13.0886 23.2862L13.4176 21.614L12.7048 21.6414V22.3816L12.5952 22.6283L12.4033 22.7654L12.2114 22.7928L11.0326 22.6009L8.53808 22.1897L8.18172 22.08L8.04466 21.9156L8.01724 21.8059V19.1743L8.09948 19.0373L8.31878 18.9002L8.5655 18.8728H12.1017L12.4033 18.9002L12.5678 19.0099L12.6774 19.1743L12.7048 19.6129V20.7368L13.6094 20.7094L13.7465 20.1338L14.1577 18.2149L14.377 17.2829L14.5415 16.8717L14.7334 16.4879L14.9527 16.159L15.2816 15.7752L15.4735 15.5833L15.8573 15.2818L16.3507 14.9803L16.899 14.761L17.365 14.6513L17.831 14.5965Z"/>
</mask>
<path d="M17.831 14.5965H34.1416L34.7447 14.6787L35.3203 14.8432L35.7589 15.0351L36.1975 15.3092L36.6361 15.6656L36.9651 16.0219L37.2118 16.3783L37.4037 16.7072L37.5682 17.1184L37.7327 17.6941L38.1439 19.6404L38.3632 20.6546L38.3906 20.7094L39.3226 20.7368L39.2952 19.8322V19.3114L39.35 19.1195L39.4871 18.9825L39.6516 18.9002L42.9137 18.8728L43.6812 18.9002L43.8457 19.0099L43.9554 19.1469L43.9828 19.284V21.7785L43.9005 21.9978L43.7635 22.1075L43.3249 22.2171L41.7075 22.4912L39.8709 22.7928H39.6516L39.4322 22.6831L39.35 22.5735L39.3226 22.4912V21.614H38.555L38.7743 22.4912L39.0211 23.5603L39.1581 23.67L39.4871 23.8618L39.8709 24.136L40.1998 24.4375L40.4739 24.7116L40.8029 25.1776L41.0222 25.5614L41.2415 26.0822L41.3786 26.6305L41.4608 27.2336L41.7075 30.0296L41.7623 30.989V35.5943L41.6801 36.1151L41.5704 36.3893L41.3786 36.6908L41.0496 37.0197L40.8029 37.1842L40.4465 37.3213L40.2272 37.3761L37.157 37.4035H36.3346L35.9508 37.3487L35.5122 37.1842L35.2107 36.9923L34.9366 36.7182L34.7173 36.3344L34.6076 36.0329L34.5528 35.6765L34.5254 34.7993H17.4746L17.4472 35.6491L17.3924 36.0329L17.2279 36.4441L16.9538 36.8278L16.7345 37.0197L16.433 37.2116L16.0492 37.3487L15.638 37.4035H12.0195L11.6631 37.3487L11.2794 37.2116L11.0052 37.0471L10.7311 36.8004L10.5666 36.5811L10.4022 36.2522L10.3199 35.9232L10.2925 35.6765L10.2651 34.4156V31.2906L10.3199 30.057L10.5666 27.3158L10.6489 26.6853L10.7859 26.1371L10.923 25.7807L11.1423 25.3421L11.4164 24.9309L11.6631 24.6294L12.0743 24.2182L12.5678 23.8618L13.0064 23.6151L13.0886 23.2862L13.4176 21.614L12.7048 21.6414V22.3816L12.5952 22.6283L12.4033 22.7654L12.2114 22.7928L11.0326 22.6009L8.53808 22.1897L8.18172 22.08L8.04466 21.9156L8.01724 21.8059V19.1743L8.09948 19.0373L8.31878 18.9002L8.5655 18.8728H12.1017L12.4033 18.9002L12.5678 19.0099L12.6774 19.1743L12.7048 19.6129V20.7368L13.6094 20.7094L13.7465 20.1338L14.1577 18.2149L14.377 17.2829L14.5415 16.8717L14.7334 16.4879L14.9527 16.159L15.2816 15.7752L15.4735 15.5833L15.8573 15.2818L16.3507 14.9803L16.899 14.761L17.365 14.6513L17.831 14.5965Z" fill="white" stroke="white" stroke-width="4" mask="url(#path-2-inside-1_1_624)"/>
<path d="M37.7938 34.092L37.7283 33.9768L37.619 33.7854L37.5535 33.6711L37.4412 33.6047L37.3045 33.5217L37.2137 33.468L37.1092 33.4543L36.8905 33.427L36.8602 33.4231H36.8309L31.5096 33.3977L31.4891 31.8879L31.4881 31.842L31.4793 31.7971L31.4246 31.5227L31.3905 31.3498L31.2547 31.2365L31.0897 31.0998L30.9617 30.9934L30.7957 30.9846L30.2752 30.9572L30.2625 30.9563H21.5643L21.5408 30.9582L21.2401 30.9856L21.1317 30.9953L21.0369 31.05L20.8455 31.1594L20.7557 31.2102L20.6932 31.2932L20.6112 31.4026L20.5428 31.4934L20.5203 31.6047L20.493 31.7424L20.4832 31.7903V33.3977L15.0057 33.4231L14.9158 33.424L14.8319 33.4553L14.6131 33.5373L14.4696 33.591L14.3817 33.7151L14.244 33.9065L14.1512 34.0373V34.5774L14.2166 34.6926L14.327 34.884L14.3944 35.0022L14.5125 35.0705L14.7049 35.1799L14.8162 35.2434L14.9442 35.2453L16.0701 35.2639V35.6164L16.0155 35.7658L15.9295 35.8801L15.825 35.9709L15.7205 36.0227L15.6981 36.0276H12.075L11.9598 36.0012L11.8807 35.9543L11.7528 35.6985H11.6893L11.6698 35.6008V30.9905L11.7235 29.9182L11.9139 27.7541L11.992 27.0168L12.0897 26.5754L12.2039 26.258L12.4158 25.8586L12.6561 25.5471L12.6844 25.5149H12.8729L12.9647 25.2385L13.2528 25.0217L13.5819 24.8332L13.9061 24.6946L14.3563 24.5754L14.7596 24.5276H37.3621L37.7742 24.5959L38.1942 24.7356L38.5789 24.927L38.9129 25.1418L39.1522 25.3586L39.2655 25.4729L39.4451 25.675L39.6561 26.0031L39.8446 26.383L39.9852 26.8283L40.0594 27.3508L40.3045 30.1301L40.3582 31.1535V35.5412L40.326 35.7043L40.2723 35.8098L40.1932 35.9026L40.0535 35.9963L39.9725 36.0276H36.2576L36.1317 35.9817L35.9608 35.8264L35.9334 35.7785L35.8748 35.4621V35.2629L36.8104 35.2453L36.8553 35.2444L36.8983 35.2356L37.1727 35.1809L37.2977 35.1565L37.3953 35.0754L37.5594 34.9377L37.6395 34.8713L37.7938 34.5627V34.092Z" fill="white" stroke="black"/>
<path d="M34.0061 15.9454L34.3997 15.9923L34.7825 16.1046L35.1545 16.2912L35.4172 16.4591L35.6458 16.6417L35.8391 16.8361L36.0422 17.129L36.2258 17.4718L36.3713 17.9572L36.6125 19.0831V19.0841L37.3254 22.4835L37.3264 22.4855L37.3674 22.6759H35.3762L14.6116 22.6486L15.4973 18.4259L15.4963 18.4249L15.6526 17.7511L15.7932 17.3771L15.9485 17.09L16.176 16.7931L16.4534 16.5148L16.6721 16.3624L16.8752 16.2482L16.8762 16.2492L17.0676 16.1525L17.3821 16.0402L17.7395 15.9718L33.3479 15.9454H34.0061Z" fill="white" stroke="black"/>
<path d="M37.7732 27.2465L37.989 27.2894L38.1267 27.3471L38.2791 27.4535L38.2888 27.4613L38.4158 27.6391L38.5242 27.8998L38.5711 28.1508V28.4926L38.5086 28.7719L38.3894 29.0258L38.2742 29.1664L38.1844 29.2445L38.0887 29.3021L37.8562 29.3744L37.7586 29.3861H33.7039L33.5154 29.3451L33.3162 29.2602L33.1795 29.1654L33.0467 29.0463L32.9246 28.8549L32.8406 28.6439V28.4252L32.8699 28.3275L32.9314 28.225L32.9334 28.2221L33.0056 28.1723L33.0994 28.1352L33.5916 28.017L35.5525 27.6391L37.5008 27.2621L37.616 27.2465H37.7732Z" fill="black" stroke="black" stroke-width="2"/>
<path d="M14.7565 27.302L15.6315 27.4524V27.4514L17.7428 27.8577V27.8587L19.0612 28.1214L19.2926 28.1926L19.3708 28.2317L19.404 28.262L19.4606 28.3743V28.5071L19.4059 28.7219L19.2838 28.9671L19.1667 29.1145L19.069 29.2112L18.8971 29.3176L18.7721 29.3626L18.6461 29.386H14.5876L14.3883 29.3548L14.1784 29.2854L14.0729 29.218L13.9694 29.1155L13.8542 28.9124L13.7751 28.7063L13.7301 28.4788V28.1741L13.777 27.9251L13.8698 27.6936L13.9528 27.5618L14.0905 27.4241L14.193 27.3626L14.3385 27.302H14.7565Z" fill="black" stroke="black" stroke-width="2"/>
<mask id="path-7-inside-2_1_624" fill="white">
<path d="M21.8874 32.3055H30.1112L30.1386 32.3329V33.8954H26.013H21.8874L21.8599 33.868V32.3329L21.8874 32.3055Z"/>
</mask>
<path d="M21.8874 32.3055H30.1112L30.1386 32.3329V33.8954H26.013H21.8874L21.8599 33.868V32.3329L21.8874 32.3055Z" fill="black"/>
<path d="M21.8874 32.3055V30.3055H21.0589L20.4732 30.8913L21.8874 32.3055ZM30.1112 32.3055L31.5254 30.8913L30.9396 30.3055H30.1112V32.3055ZM30.1386 32.3329H32.1386V31.5045L31.5528 30.9187L30.1386 32.3329ZM30.1386 33.8954V35.8954H32.1386V33.8954H30.1386ZM21.8874 33.8954L20.4731 35.3097L21.0589 35.8954H21.8874V33.8954ZM21.8599 33.868H19.8599V34.6965L20.4457 35.2823L21.8599 33.868ZM21.8599 32.3329L20.4457 30.9187L19.8599 31.5045V32.3329H21.8599ZM21.8874 32.3055V34.3055H30.1112V32.3055V30.3055H21.8874V32.3055ZM30.1112 32.3055L28.697 33.7197L28.7244 33.7472L30.1386 32.3329L31.5528 30.9187L31.5254 30.8913L30.1112 32.3055ZM30.1386 32.3329H28.1386V33.8954H30.1386H32.1386V32.3329H30.1386ZM21.8874 33.8954L23.3016 32.4812L23.2741 32.4538L21.8599 33.868L20.4457 35.2823L20.4731 35.3097L21.8874 33.8954ZM21.8599 33.868H23.8599V32.3329H21.8599H19.8599V33.868H21.8599ZM21.8599 32.3329L23.2741 33.7472L23.3016 33.7198L21.8874 32.3055L20.4732 30.8913L20.4457 30.9187L21.8599 32.3329ZM30.1386 33.8954V31.8954H26.013V33.8954V35.8954H30.1386V33.8954ZM26.013 33.8954V31.8954H21.8874V33.8954V35.8954H26.013V33.8954Z" fill="black" mask="url(#path-7-inside-2_1_624)"/>
<path d="M37.6519 28.0778L37.6802 28.0905L37.7183 28.15L37.7446 28.234V28.3981L37.7261 28.4586L37.6919 28.5065L37.6909 28.5084H35.5815L35.8198 28.4596L35.8267 28.4586L37.6245 28.0768L37.6284 28.0758L37.6519 28.0778Z" fill="white" stroke="white" stroke-width="2"/>
<path d="M14.7458 28.1245L16.7477 28.5093H14.6423L14.613 28.4673L14.5817 28.3804V28.2612L14.6071 28.1587L14.6247 28.1245H14.7458Z" fill="black" stroke="white" stroke-width="2"/>
<mask id="path-11-inside-3_1_624" fill="white">
<path d="M40.2001 19.751H43.051L43.0785 19.7785V21.341L42.9688 21.3958L40.3098 21.8344H40.1453V19.7785L40.2001 19.751Z"/>
</mask>
<path d="M40.2001 19.751H43.051L43.0785 19.7785V21.341L42.9688 21.3958L40.3098 21.8344H40.1453V19.7785L40.2001 19.751Z" fill="white"/>
<path d="M40.2001 19.751V17.751H39.728L39.3057 17.9622L40.2001 19.751ZM43.051 19.751L44.4652 18.3368L43.8795 17.751H43.051V19.751ZM43.0785 19.7785H45.0785V18.95L44.4927 18.3642L43.0785 19.7785ZM43.0785 21.341L43.9729 23.1298L45.0785 22.577V21.341H43.0785ZM42.9688 21.3958L43.2943 23.3691L43.5927 23.3199L43.8632 23.1846L42.9688 21.3958ZM40.3098 21.8344V23.8344H40.4736L40.6353 23.8077L40.3098 21.8344ZM40.1453 21.8344H38.1453V23.8344H40.1453V21.8344ZM40.1453 19.7785L39.2509 17.9896L38.1453 18.5424V19.7785H40.1453ZM40.2001 19.751V21.751H43.051V19.751V17.751H40.2001V19.751ZM43.051 19.751L41.6368 21.1653L41.6643 21.1927L43.0785 19.7785L44.4927 18.3642L44.4652 18.3368L43.051 19.751ZM43.0785 19.7785H41.0785V21.341H43.0785H45.0785V19.7785H43.0785ZM43.0785 21.341L42.184 19.5521L42.0744 19.6069L42.9688 21.3958L43.8632 23.1846L43.9729 23.1298L43.0785 21.341ZM42.9688 21.3958L42.6433 19.4225L39.9843 19.861L40.3098 21.8344L40.6353 23.8077L43.2943 23.3691L42.9688 21.3958ZM40.3098 21.8344V19.8344H40.1453V21.8344V23.8344H40.3098V21.8344ZM40.1453 21.8344H42.1453V19.7785H40.1453H38.1453V21.8344H40.1453ZM40.1453 19.7785L41.0397 21.5673L41.0945 21.5399L40.2001 19.751L39.3057 17.9622L39.2509 17.9896L40.1453 19.7785Z" fill="white" mask="url(#path-11-inside-3_1_624)"/>
<mask id="path-13-inside-4_1_624" fill="white">
<path d="M9.49837 19.751H11.801L11.8285 19.7785V21.8344H11.6366L10.4304 21.6151L8.95012 21.3684L8.89529 21.3135V19.8059L8.92271 19.7785L9.49837 19.751Z"/>
</mask>
<path d="M9.49837 19.751H11.801L11.8285 19.7785V21.8344H11.6366L10.4304 21.6151L8.95012 21.3684L8.89529 21.3135V19.8059L8.92271 19.7785L9.49837 19.751Z" fill="black"/>
<path d="M9.49837 19.751V17.751H9.45078L9.40325 17.7533L9.49837 19.751ZM11.801 19.751L13.2152 18.3368L12.6295 17.751H11.801V19.751ZM11.8285 19.7785H13.8285V18.95L13.2427 18.3642L11.8285 19.7785ZM11.8285 21.8344V23.8344H13.8285V21.8344H11.8285ZM11.6366 21.8344L11.2788 23.8021L11.4562 23.8344H11.6366V21.8344ZM10.4304 21.6151L10.7882 19.6473L10.7737 19.6447L10.7592 19.6423L10.4304 21.6151ZM8.95012 21.3684L7.53592 22.7826L7.98912 23.2358L8.62133 23.3412L8.95012 21.3684ZM8.89529 21.3135H6.89529V22.142L7.48109 22.7278L8.89529 21.3135ZM8.89529 19.8059L7.48109 18.3916L6.89529 18.9774V19.8059H8.89529ZM8.92271 19.7785L8.82758 17.7807L8.05525 17.8175L7.50851 18.3642L8.92271 19.7785ZM9.49837 19.751V21.751H11.801V19.751V17.751H9.49837V19.751ZM11.801 19.751L10.3868 21.1653L10.4143 21.1927L11.8285 19.7785L13.2427 18.3642L13.2152 18.3368L11.801 19.751ZM11.8285 19.7785H9.82846V21.8344H11.8285H13.8285V19.7785H11.8285ZM11.8285 21.8344V19.8344H11.6366V21.8344V23.8344H11.8285V21.8344ZM11.6366 21.8344L11.9943 19.8666L10.7882 19.6473L10.4304 21.6151L10.0726 23.5828L11.2788 23.8021L11.6366 21.8344ZM10.4304 21.6151L10.7592 19.6423L9.27891 19.3956L8.95012 21.3684L8.62133 23.3412L10.1016 23.5879L10.4304 21.6151ZM8.95012 21.3684L10.3643 19.9541L10.3095 19.8993L8.89529 21.3135L7.48109 22.7278L7.53592 22.7826L8.95012 21.3684ZM8.89529 21.3135H10.8953V19.8059H8.89529H6.89529V21.3135H8.89529ZM8.89529 19.8059L10.3095 21.2201L10.3369 21.1927L8.92271 19.7785L7.50851 18.3642L7.48109 18.3916L8.89529 19.8059ZM8.92271 19.7785L9.01784 21.7762L9.5935 21.7488L9.49837 19.751L9.40325 17.7533L8.82758 17.7807L8.92271 19.7785Z" fill="white" mask="url(#path-13-inside-4_1_624)"/>
</svg>
