<svg width="225" height="18" viewBox="0 0 225 18" fill="none" xmlns="http://www.w3.org/2000/svg">
<g clip-path="url(#clip0_1_539)">
<path d="M3.80071 2.88722L11.5197 16.6946L20.4425 16.7179L28.0198 2.88722H31.8203V0.372559H20.3953V2.88722H23.7L18.1764 12.9459L12.5819 2.88722H16.5948V0.372559H0.000244141V2.88722H3.80071Z" fill="#5F5F5F"/>
<path d="M102.069 2.88713V0.395752H117.366V2.88713H113.565V14.1798H117.106C120.387 14.1798 122.535 12.0377 122.535 9.15049H125.061V16.7178H102.093V14.1565H105.941V2.86384H102.069V2.88713Z" fill="#5F5F5F"/>
<path d="M64.9856 0.0231934C57.3138 0.0231934 53.2301 3.79518 53.2301 8.5451C53.2301 13.3416 57.1486 17.1834 65.0328 17.1834C72.917 17.1834 76.7882 13.3416 76.7882 8.5451C76.7882 3.81847 72.6809 0.0231934 64.9856 0.0231934ZM64.9148 14.5989C62.1057 14.5523 60.8782 11.5022 60.9254 8.45196C60.9727 5.30864 62.507 2.56114 65.1272 2.60771C67.7474 2.65427 69.1401 5.44834 69.0929 8.59167C69.0457 11.5487 67.7946 14.6455 64.9148 14.5989Z" fill="#5F5F5F"/>
<path d="M151.121 2.88722L158.84 16.6946L167.763 16.7179L175.341 2.88722H179.141V0.372559H167.716V2.88722H171.021L165.497 12.9459L159.903 2.88722H163.916V0.372559H147.321V2.88722H151.121Z" fill="#5F5F5F"/>
<path d="M212.307 0.0231934C204.635 0.0231934 200.551 3.79518 200.551 8.5451C200.551 13.3416 204.47 17.1834 212.354 17.1834C220.238 17.1834 224.109 13.3416 224.109 8.5451C224.109 3.81847 220.002 0.0231934 212.307 0.0231934ZM212.236 14.5989C209.427 14.5523 208.199 11.5022 208.246 8.45196C208.294 5.30864 209.828 2.56114 212.448 2.60771C215.068 2.65427 216.461 5.44834 216.414 8.59167C216.367 11.5487 215.116 14.6455 212.236 14.5989Z" fill="#5F5F5F"/>
</g>
<defs>
<clipPath id="clip0_1_539">
<rect width="224.133" height="17.1835" fill="white"/>
</clipPath>
</defs>
</svg>
